<svg width="38" height="48" viewBox="0 0 38 48" fill="none" xmlns="http://www.w3.org/2000/svg">
<path d="M17.6227 47.0583C18.0247 47.3453 18.5063 47.4996 19.0002 47.4996C19.4942 47.4996 19.9757 47.3453 20.3777 47.0583C21.0997 46.5476 38.0691 34.295 38.0002 19C38.0002 8.52388 29.4763 0 19.0002 0C8.52409 0 0.00020909 8.52388 0.00020909 18.9881C-0.0686659 34.295 16.9007 46.5476 17.6227 47.0583ZM19.0002 4.75C26.8591 4.75 33.2502 11.1411 33.2502 19.0119C33.3001 29.5521 22.8287 39.0165 19.0002 42.1206C15.1741 39.0141 4.70033 29.5474 4.75021 19C4.75021 11.1411 11.1413 4.75 19.0002 4.75Z" fill="#229216"/>
</svg>
