<svg width="49" height="49" viewBox="0 0 49 49" fill="none" xmlns="http://www.w3.org/2000/svg">
<path d="M24.0188 12.1465C17.2045 12.1465 11.708 17.6572 11.708 24.4893C11.708 31.3213 17.2045 36.832 24.0188 36.832C30.833 36.832 36.3295 31.3213 36.3295 24.4893C36.3295 17.6572 30.833 12.1465 24.0188 12.1465ZM24.0188 32.5137C19.6152 32.5137 16.0152 28.915 16.0152 24.4893C16.0152 20.0635 19.6045 16.4648 24.0188 16.4648C28.433 16.4648 32.0223 20.0635 32.0223 24.4893C32.0223 28.915 28.4223 32.5137 24.0188 32.5137ZM39.7045 11.6416C39.7045 13.2422 38.4188 14.5205 36.833 14.5205C35.2366 14.5205 33.9616 13.2314 33.9616 11.6416C33.9616 10.0518 35.2473 8.76269 36.833 8.76269C38.4188 8.76269 39.7045 10.0518 39.7045 11.6416ZM47.858 14.5635C47.6759 10.707 46.7973 7.29102 43.9795 4.47656C41.1723 1.66211 37.7652 0.78125 33.9188 0.587891C29.9545 0.362305 18.0723 0.362305 14.108 0.587891C10.2723 0.770508 6.86518 1.65137 4.04732 4.46582C1.22946 7.28027 0.361607 10.6963 0.16875 14.5527C-0.05625 18.5273 -0.05625 30.4404 0.16875 34.415C0.350893 38.2715 1.22946 41.6875 4.04732 44.502C6.86518 47.3164 10.2616 48.1973 14.108 48.3906C18.0723 48.6162 29.9545 48.6162 33.9188 48.3906C37.7652 48.208 41.1723 47.3271 43.9795 44.502C46.7866 41.6875 47.6652 38.2715 47.858 34.415C48.083 30.4404 48.083 18.5381 47.858 14.5635ZM42.7366 38.6797C41.9009 40.7852 40.283 42.4072 38.1723 43.2559C35.0116 44.5127 27.5116 44.2227 24.0188 44.2227C20.5259 44.2227 13.0152 44.502 9.86518 43.2559C7.76518 42.418 6.14732 40.7959 5.30089 38.6797C4.04732 35.5107 4.33661 27.9912 4.33661 24.4893C4.33661 20.9873 4.05804 13.457 5.30089 10.2988C6.13661 8.19336 7.75446 6.57129 9.86518 5.72266C13.0259 4.46582 20.5259 4.75586 24.0188 4.75586C27.5116 4.75586 35.0223 4.47656 38.1723 5.72266C40.2723 6.56055 41.8902 8.18262 42.7366 10.2988C43.9902 13.4678 43.7009 20.9873 43.7009 24.4893C43.7009 27.9912 43.9902 35.5215 42.7366 38.6797Z" fill="white"/>
</svg>
