<svg width="67" height="43" viewBox="0 0 67 43" fill="none" xmlns="http://www.w3.org/2000/svg">
<path fill-rule="evenodd" clip-rule="evenodd" d="M65.6058 34.7841C64.0645 31.68 62.0335 28.8444 59.5907 26.3861C58.7736 25.4628 57.9182 24.5742 57.0265 23.7228L56.9188 23.6179C56.5878 23.2973 56.261 22.9724 55.9385 22.6433C59.278 17.9988 62.1355 13.0261 64.4668 7.80226L64.5603 7.5926L64.6255 7.3716C64.9343 6.3431 65.2857 4.3881 64.039 2.6201C62.747 0.795431 60.6815 0.466764 59.296 0.466764H52.9295C51.5964 0.406015 50.2783 0.76851 49.1638 1.50237C48.0493 2.23623 47.1954 3.30385 46.7245 4.55243C45.3543 7.81541 43.6389 10.9224 41.6075 13.8203V6.3601C41.6075 5.39677 41.5168 3.78176 40.4827 2.42176C39.2473 0.789764 37.4595 0.466764 36.2185 0.466764H26.1148C24.7964 0.436428 23.5168 0.914321 22.5411 1.80148C21.5653 2.68863 20.9681 3.91708 20.8732 5.23243L20.8647 5.35993V5.48743C20.8647 6.8616 21.4087 7.87593 21.845 8.51343C22.0405 8.7996 22.2473 9.06026 22.3805 9.2246L22.4088 9.26143C22.5505 9.4371 22.644 9.55326 22.7375 9.6836C22.9868 10.0179 23.341 10.5393 23.443 11.8823V16.0558C21.4148 12.6595 19.7518 9.05811 18.4818 5.31176L18.4592 5.24943L18.4365 5.18993C18.0908 4.2861 17.5383 2.97143 16.4305 1.96843C15.1385 0.792598 13.6085 0.466764 12.2173 0.466764H5.75733C4.34917 0.466764 2.652 0.795432 1.3855 2.12993C0.141667 3.4446 0 5.01993 0 5.85293V6.2326L0.0793333 6.60093C1.86802 14.9048 5.554 22.6821 10.8488 29.3243C13.2696 33.1416 16.556 36.3347 20.4415 38.6445C24.327 40.9542 28.7023 42.3156 33.2123 42.6183L33.3285 42.6268H33.4475C35.5045 42.6268 37.6493 42.4483 39.2615 41.3744C41.4347 39.9238 41.6075 37.6996 41.6075 36.5889V33.3646C42.1657 33.8179 42.857 34.4243 43.7042 35.2403C44.7298 36.2659 45.5458 37.1556 46.2457 37.9319L46.6197 38.3456C47.1637 38.9519 47.6992 39.5498 48.1865 40.0399C48.7985 40.6548 49.555 41.3319 50.5013 41.8334C51.5298 42.3746 52.6093 42.6211 53.754 42.6211H60.2168C61.5797 42.6211 63.5318 42.2981 64.906 40.7058C66.402 38.9718 66.2887 36.8439 65.8183 35.3168L65.7333 35.0419L65.6058 34.7841ZM49.3992 35.0844C48.521 34.1028 47.6169 33.1448 46.6877 32.2114L46.6792 32.2029C42.8343 28.4969 41.0408 27.8538 39.7715 27.8538C39.0943 27.8538 38.3492 27.9274 37.8647 28.5338C37.6465 28.823 37.5034 29.1617 37.4482 29.5198C37.3799 29.9355 37.3495 30.3566 37.3575 30.7778V36.5889C37.3575 37.3114 37.2385 37.6146 36.9042 37.8356C36.4593 38.1331 35.5102 38.3739 33.473 38.3739C29.6033 38.1106 25.8513 36.9326 22.5255 34.9368C19.1997 32.9409 16.3951 30.1842 14.3423 26.8933L14.3197 26.8564L14.2913 26.8224C9.35883 20.683 5.92122 13.481 4.25 5.78493C4.26133 5.4166 4.34067 5.19277 4.471 5.05677C4.60417 4.9151 4.93 4.71676 5.75733 4.71676H12.2173C12.9342 4.71676 13.3082 4.87543 13.5773 5.11627C13.8777 5.39393 14.144 5.86143 14.4613 6.69443C16.048 11.3581 18.19 15.7214 20.2215 18.9288C21.2358 20.5296 22.2332 21.8641 23.1342 22.8076C23.5847 23.2779 24.0238 23.6689 24.446 23.9466C24.8512 24.2129 25.313 24.4254 25.789 24.4254C26.0383 24.4254 26.3302 24.3971 26.6107 24.2753C26.9136 24.1415 27.163 23.91 27.319 23.6179C27.6108 23.0853 27.693 22.3004 27.693 21.2719V11.7151C27.5428 9.39743 26.843 8.09127 26.163 7.16476C26.0253 6.97945 25.8836 6.79713 25.738 6.61793L25.7012 6.5726C25.5803 6.42584 25.465 6.27463 25.3555 6.11927C25.216 5.946 25.1321 5.73467 25.1147 5.51293C25.1369 5.28779 25.2443 5.07965 25.415 4.93111C25.5856 4.78258 25.8066 4.70489 26.0327 4.71393H36.2185C36.8022 4.71393 36.9977 4.8556 37.0968 4.98876C37.2385 5.17293 37.3575 5.55543 37.3575 6.3601V19.1894C37.3575 20.7138 38.0602 21.7451 39.0802 21.7451C40.2532 21.7451 41.1003 21.0339 42.5793 19.5549L42.6048 19.5266L42.6275 19.5011C45.9453 15.4559 48.6559 10.9489 50.6742 6.1221L50.6855 6.0881C50.8372 5.66164 51.1242 5.2965 51.5027 5.04839C51.8813 4.80028 52.3306 4.68282 52.7822 4.71393H59.2988C60.1828 4.71393 60.4718 4.9406 60.5682 5.07377C60.6673 5.21543 60.7382 5.5186 60.5682 6.1136C58.2408 11.3166 55.3638 16.2558 51.986 20.8469L51.9633 20.8809C51.6375 21.3824 51.2777 21.9378 51.2267 22.5724C51.17 23.2581 51.4647 23.8786 51.9832 24.5473C52.36 25.1026 53.1392 25.8648 53.9297 26.6383L54.0033 26.7119C54.8307 27.5223 55.7288 28.4006 56.4485 29.2506L56.4683 29.2704L56.4882 29.2931C58.6342 31.4336 60.4187 33.9081 61.7723 36.6201C61.9877 37.3568 61.8573 37.7364 61.6873 37.9319C61.4918 38.1586 61.0527 38.3711 60.2197 38.3711H53.754C53.3133 38.3818 52.8773 38.2794 52.4875 38.0736C52.0098 37.7957 51.5762 37.4481 51.2012 37.0423C50.796 36.6371 50.3568 36.1469 49.8185 35.5491L49.3992 35.0844Z" fill="white"/>
</svg>
